<?xml version="1.0" encoding="UTF-8" standalone="no"?>
<!-- Generator: Adobe Illustrator 17.0.1, SVG Export Plug-In . SVG Version: 6.00 Build 0)  -->

<svg
   version="1.1"
   id="Layer_1"
   x="0px"
   y="0px"
   width="64px"
   height="64px"
   viewBox="0 0 64 64"
   style="enable-background:new 0 0 64 64;"
   xml:space="preserve"
   xmlns="http://www.w3.org/2000/svg"
   xmlns:svg="http://www.w3.org/2000/svg"><defs
   id="defs13"><filter
     style="color-interpolation-filters:sRGB"
     id="filter2258-6"
     x="0"
     y="0"
     width="1"
     height="1"><feColorMatrix
       values="0.21 0.72 0.072 0 0 0.21 0.72 0.072 0 0 0.21 0.72 0.072 0 0 0 0 0 1 0 "
       id="feColorMatrix2256-8" /></filter><filter
     style="color-interpolation-filters:sRGB"
     id="filter2262-0"
     x="0"
     y="0"
     width="1"
     height="1"><feColorMatrix
       values="0.21 0.72 0.072 0 0 0.21 0.72 0.072 0 0 0.21 0.72 0.072 0 0 0 0 0 1 0 "
       id="feColorMatrix2260-6" /></filter><filter
     style="color-interpolation-filters:sRGB"
     id="filter2266-7"
     x="0"
     y="0"
     width="1"
     height="1"><feColorMatrix
       values="0.21 0.72 0.072 0 0 0.21 0.72 0.072 0 0 0.21 0.72 0.072 0 0 0 0 0 1 0 "
       id="feColorMatrix2264-3" /></filter><filter
     style="color-interpolation-filters:sRGB"
     id="filter2270-5"
     x="0"
     y="0"
     width="1"
     height="1"><feColorMatrix
       values="0.21 0.72 0.072 0 0 0.21 0.72 0.072 0 0 0.21 0.72 0.072 0 0 0 0 0 1 0 "
       id="feColorMatrix2268-0" /></filter><filter
     style="color-interpolation-filters:sRGB"
     id="filter2274-3"
     x="0"
     y="0"
     width="1"
     height="1"><feColorMatrix
       values="0.21 0.72 0.072 0 0 0.21 0.72 0.072 0 0 0.21 0.72 0.072 0 0 0 0 0 1 0 "
       id="feColorMatrix2272-9" /></filter><filter
     style="color-interpolation-filters:sRGB"
     id="filter2278-5"
     x="0"
     y="0"
     width="1"
     height="1"><feColorMatrix
       values="0.21 0.72 0.072 0 0 0.21 0.72 0.072 0 0 0.21 0.72 0.072 0 0 0 0 0 1 0 "
       id="feColorMatrix2276-5" /></filter><filter
     style="color-interpolation-filters:sRGB"
     id="filter2282-0"
     x="0"
     y="0"
     width="1"
     height="1"><feColorMatrix
       values="0.21 0.72 0.072 0 0 0.21 0.72 0.072 0 0 0.21 0.72 0.072 0 0 0 0 0 1 0 "
       id="feColorMatrix2280-8" /></filter><filter
     style="color-interpolation-filters:sRGB"
     id="filter2286-8"
     x="0"
     y="0"
     width="1"
     height="1"><feColorMatrix
       values="0.21 0.72 0.072 0 0 0.21 0.72 0.072 0 0 0.21 0.72 0.072 0 0 0 0 0 1 0 "
       id="feColorMatrix2284-3" /></filter><filter
     style="color-interpolation-filters:sRGB"
     id="filter2290-1"
     x="0"
     y="0"
     width="1"
     height="1"><feColorMatrix
       values="0.21 0.72 0.072 0 0 0.21 0.72 0.072 0 0 0.21 0.72 0.072 0 0 0 0 0 1 0 "
       id="feColorMatrix2288-6" /></filter><filter
     style="color-interpolation-filters:sRGB"
     id="filter2294-1"
     x="0"
     y="0"
     width="1"
     height="1"><feColorMatrix
       values="0.21 0.72 0.072 0 0 0.21 0.72 0.072 0 0 0.21 0.72 0.072 0 0 0 0 0 1 0 "
       id="feColorMatrix2292-1" /></filter><filter
     style="color-interpolation-filters:sRGB"
     id="filter2298-9"
     x="0"
     y="0"
     width="1"
     height="1"><feColorMatrix
       values="0.21 0.72 0.072 0 0 0.21 0.72 0.072 0 0 0.21 0.72 0.072 0 0 0 0 0 1 0 "
       id="feColorMatrix2296-8" /></filter><filter
     style="color-interpolation-filters:sRGB"
     id="filter2302-5"
     x="0"
     y="0"
     width="1"
     height="1"><feColorMatrix
       values="0.21 0.72 0.072 0 0 0.21 0.72 0.072 0 0 0.21 0.72 0.072 0 0 0 0 0 1 0 "
       id="feColorMatrix2300-9" /></filter><filter
     style="color-interpolation-filters:sRGB"
     id="filter2306-9"
     x="0"
     y="0"
     width="1"
     height="1"><feColorMatrix
       values="0.21 0.72 0.072 0 0 0.21 0.72 0.072 0 0 0.21 0.72 0.072 0 0 0 0 0 1 0 "
       id="feColorMatrix2304-8" /></filter><filter
     style="color-interpolation-filters:sRGB"
     id="filter2310-4"
     x="0"
     y="0"
     width="1"
     height="1"><feColorMatrix
       values="0.21 0.72 0.072 0 0 0.21 0.72 0.072 0 0 0.21 0.72 0.072 0 0 0 0 0 1 0 "
       id="feColorMatrix2308-3" /></filter><filter
     style="color-interpolation-filters:sRGB"
     id="filter2314-0"
     x="0"
     y="0"
     width="1"
     height="1"><feColorMatrix
       values="0.21 0.72 0.072 0 0 0.21 0.72 0.072 0 0 0.21 0.72 0.072 0 0 0 0 0 1 0 "
       id="feColorMatrix2312-8" /></filter><filter
     style="color-interpolation-filters:sRGB"
     id="filter2318-2"
     x="0"
     y="0"
     width="1"
     height="1"><feColorMatrix
       values="0.21 0.72 0.072 0 0 0.21 0.72 0.072 0 0 0.21 0.72 0.072 0 0 0 0 0 1 0 "
       id="feColorMatrix2316-5" /></filter></defs>
<g
   id="icon-m-battery">
	<rect
   id="icon-m-battery_1_"
   style="opacity:0;fill:#ffffff"
   width="64"
   height="64"
   x="0"
   y="0" />
	
	<g
   style="opacity:0.6"
   id="g7"
   transform="matrix(1.1363636,0,0,1.1363636,-4.3636352,-4.3636352)">
		<path
   style="fill:#ffffff"
   d="M 49.729,54 H 14.272 C 11.917,54 10,52.083 10,49.728 V 14.272 C 10,11.917 11.917,10 14.272,10 H 49.729 C 52.084,10 54,11.917 54,14.272 V 49.727 C 54,52.083 52.084,54 49.729,54 Z M 14.272,12 C 13.019,12 12,13.02 12,14.272 V 49.727 C 12,50.98 13.019,52 14.272,52 H 49.729 C 50.981,52 52,50.98 52,49.728 V 14.272 C 52,13.02 50.981,12 49.729,12 Z"
   id="path5" />
	</g>
<path
   d="m 348.88224,513.22687 a 2.422795,2.422795 0 1 1 -4.84559,0 2.422795,2.422795 0 1 1 4.84559,0 z"
   transform="matrix(1.4045153,0,0,1.3840434,-471.20474,-694.97501)"
   id="path3822-6"
   style="fill:#ff0000;fill-opacity:1;stroke:none;filter:url(#filter2318-2)" /><path
   d="m 348.88224,513.22687 a 2.422795,2.422795 0 1 1 -4.84559,0 2.422795,2.422795 0 1 1 4.84559,0 z"
   transform="matrix(1.4045153,0,0,1.3840434,-471.20474,-683.87718)"
   id="path3824-8"
   style="fill:#ebed02;fill-opacity:1;stroke:none;filter:url(#filter2314-0)" /><path
   d="m 348.88224,513.22687 a 2.422795,2.422795 0 1 1 -4.84559,0 2.422795,2.422795 0 1 1 4.84559,0 z"
   transform="matrix(1.4045153,0,0,1.3840434,-471.20474,-672.77941)"
   id="path3826-2"
   style="fill:#ebed02;fill-opacity:1;stroke:none;filter:url(#filter2310-4)" /><path
   d="m 348.88224,513.22687 a 2.422795,2.422795 0 1 1 -4.84559,0 2.422795,2.422795 0 1 1 4.84559,0 z"
   transform="matrix(1.4045153,0,0,1.3840434,-471.20474,-661.68152)"
   id="path3828-5"
   style="fill:#ff0000;fill-opacity:1;stroke:none;filter:url(#filter2306-9)" /><path
   d="m 348.88224,513.22687 a 2.422795,2.422795 0 1 1 -4.84559,0 2.422795,2.422795 0 1 1 4.84559,0 z"
   transform="matrix(1.4045153,0,0,1.3840434,-460.13997,-694.97501)"
   id="path3865-4"
   style="fill:#ebed02;fill-opacity:1;stroke:none;filter:url(#filter2302-5)" /><path
   d="m 348.88224,513.22687 a 2.422795,2.422795 0 1 1 -4.84559,0 2.422795,2.422795 0 1 1 4.84559,0 z"
   transform="matrix(1.4045153,0,0,1.3840434,-460.13997,-683.87718)"
   id="path3867-1"
   style="fill:#ff0000;fill-opacity:1;stroke:none;filter:url(#filter2298-9)" /><path
   d="m 348.88224,513.22687 a 2.422795,2.422795 0 1 1 -4.84559,0 2.422795,2.422795 0 1 1 4.84559,0 z"
   transform="matrix(1.4045153,0,0,1.3840434,-460.13997,-672.77941)"
   id="path3869-9"
   style="fill:#ebed02;fill-opacity:1;stroke:none;filter:url(#filter2294-1)" /><path
   d="m 348.88224,513.22687 a 2.422795,2.422795 0 1 1 -4.84559,0 2.422795,2.422795 0 1 1 4.84559,0 z"
   transform="matrix(1.4045153,0,0,1.3840434,-460.13997,-661.68152)"
   id="path3871-2"
   style="fill:#ff0000;fill-opacity:1;stroke:none;filter:url(#filter2290-1)" /><path
   d="m 348.88224,513.22687 a 2.422795,2.422795 0 1 1 -4.84559,0 2.422795,2.422795 0 1 1 4.84559,0 z"
   transform="matrix(1.4045153,0,0,1.3840434,-449.0752,-694.97501)"
   id="path3873-6"
   style="fill:#ebed02;fill-opacity:1;stroke:none;filter:url(#filter2286-8)" /><path
   d="m 348.88224,513.22687 a 2.422795,2.422795 0 1 1 -4.84559,0 2.422795,2.422795 0 1 1 4.84559,0 z"
   transform="matrix(1.4045153,0,0,1.3840434,-449.0752,-683.87718)"
   id="path3875-4"
   style="fill:#ff0000;fill-opacity:1;stroke:none;filter:url(#filter2282-0)" /><path
   d="m 348.88224,513.22687 a 2.422795,2.422795 0 1 1 -4.84559,0 2.422795,2.422795 0 1 1 4.84559,0 z"
   transform="matrix(1.4045153,0,0,1.3840434,-449.0752,-672.77941)"
   id="path3877-3"
   style="fill:#ebed02;fill-opacity:1;stroke:none;filter:url(#filter2278-5)" /><path
   d="m 348.88224,513.22687 a 2.422795,2.422795 0 1 1 -4.84559,0 2.422795,2.422795 0 1 1 4.84559,0 z"
   transform="matrix(1.4045153,0,0,1.3840434,-449.0752,-661.68152)"
   id="path3879-1"
   style="fill:#ff0000;fill-opacity:1;stroke:none;filter:url(#filter2274-3)" /><path
   d="m 348.88224,513.22687 a 2.422795,2.422795 0 1 1 -4.84559,0 2.422795,2.422795 0 1 1 4.84559,0 z"
   transform="matrix(1.4045153,0,0,1.3840434,-438.01044,-694.97501)"
   id="path3881-6"
   style="fill:#ebed02;fill-opacity:1;stroke:none;filter:url(#filter2270-5)" /><path
   d="m 348.88224,513.22687 a 2.422795,2.422795 0 1 1 -4.84559,0 2.422795,2.422795 0 1 1 4.84559,0 z"
   transform="matrix(1.4045153,0,0,1.3840434,-438.01044,-683.87718)"
   id="path3883-5"
   style="fill:#ebed02;fill-opacity:1;stroke:none;filter:url(#filter2266-7)" /><path
   d="m 348.88224,513.22687 a 2.422795,2.422795 0 1 1 -4.84559,0 2.422795,2.422795 0 1 1 4.84559,0 z"
   transform="matrix(1.4045153,0,0,1.3840434,-438.01044,-672.77941)"
   id="path3885-1"
   style="fill:#ebed02;fill-opacity:1;stroke:none;filter:url(#filter2262-0)" /><path
   d="m 348.88224,513.22687 a 2.422795,2.422795 0 1 1 -4.84559,0 2.422795,2.422795 0 1 1 4.84559,0 z"
   transform="matrix(1.4045153,0,0,1.3840434,-438.01044,-661.68152)"
   id="path3887-9"
   style="fill:#ebed02;fill-opacity:1;stroke:none;filter:url(#filter2258-6)" /></g>
</svg>
