<?xml version="1.0" encoding="UTF-8" standalone="no"?>
<!-- Created with Inkscape (http://www.inkscape.org/) -->

<svg
   version="1.1"
   width="187.75967"
   height="50.232082"
   id="svg5700"
   xmlns:xlink="http://www.w3.org/1999/xlink"
   xmlns="http://www.w3.org/2000/svg"
   xmlns:svg="http://www.w3.org/2000/svg"
   xmlns:rdf="http://www.w3.org/1999/02/22-rdf-syntax-ns#"
   xmlns:cc="http://creativecommons.org/ns#"
   xmlns:dc="http://purl.org/dc/elements/1.1/">
  <defs
     id="defs5702">
    <pattern
       xlink:href="#pattern5595"
       id="pattern6495"
       patternTransform="matrix(1.2534787,-1.2534787,1.2534787,1.2534787,39.404452,317.94405)" />
    <pattern
       xlink:href="#Strips1_1"
       id="pattern5595"
       patternTransform="matrix(1.2534787,-1.2534787,1.2534787,1.2534787,39.404452,317.94405)" />
    <pattern
       id="Strips1_1"
       patternTransform="translate(0,0) scale(10,10)"
       height="1"
       width="2"
       patternUnits="userSpaceOnUse">
      <rect
         id="rect4774"
         height="2"
         width="1"
         y="-0.5"
         x="0"
         style="fill:black;stroke:none" />
    </pattern>
  </defs>
  <metadata
     id="metadata5705">
    <rdf:RDF>
      <cc:Work
         rdf:about="">
        <dc:format>image/svg+xml</dc:format>
        <dc:type
           rdf:resource="http://purl.org/dc/dcmitype/StillImage" />
      </cc:Work>
    </rdf:RDF>
  </metadata>
  <g
     transform="translate(-331.83727,-435.81803)"
     id="layer1">
    <g
       transform="matrix(0.78302313,0,0,0.78302313,5.8401679,44.724391)"
       id="g5867">
      <path
         d="m 348.88224,513.22687 a 2.422795,2.422795 0 1 1 -4.84559,0 2.422795,2.422795 0 1 1 4.84559,0 z"
         transform="matrix(1.866199,0,0,1.866199,-220.60107,-448.68738)"
         id="path3798"
         style="fill:#ff0000;fill-opacity:1;stroke:none" />
      <path
         d="m 348.88224,513.22687 a 2.422795,2.422795 0 1 1 -4.84559,0 2.422795,2.422795 0 1 1 4.84559,0 z"
         transform="matrix(1.866199,0,0,1.866199,-220.60107,-433.72342)"
         id="path3800"
         style="fill:#ff0000;fill-opacity:1;stroke:none" />
      <path
         d="m 348.88224,513.22687 a 2.422795,2.422795 0 1 1 -4.84559,0 2.422795,2.422795 0 1 1 4.84559,0 z"
         transform="matrix(1.866199,0,0,1.866199,-220.60107,-418.75953)"
         id="path3802"
         style="fill:#ff0000;fill-opacity:1;stroke:none" />
      <path
         d="m 348.88224,513.22687 a 2.422795,2.422795 0 1 1 -4.84559,0 2.422795,2.422795 0 1 1 4.84559,0 z"
         transform="matrix(1.866199,0,0,1.866199,-220.60107,-403.79556)"
         id="path3804"
         style="fill:#ff0000;fill-opacity:1;stroke:none" />
      <path
         d="m 348.88224,513.22687 a 2.422795,2.422795 0 1 1 -4.84559,0 2.422795,2.422795 0 1 1 4.84559,0 z"
         transform="matrix(1.866199,0,0,1.866199,-205.89916,-448.68738)"
         id="path3806"
         style="fill:#ff0000;fill-opacity:1;stroke:none" />
      <path
         d="m 348.88224,513.22687 a 2.422795,2.422795 0 1 1 -4.84559,0 2.422795,2.422795 0 1 1 4.84559,0 z"
         transform="matrix(1.866199,0,0,1.866199,-205.89916,-433.72342)"
         id="path3808"
         style="fill:#ff0000;fill-opacity:1;stroke:none" />
      <path
         d="m 348.88224,513.22687 a 2.422795,2.422795 0 1 1 -4.84559,0 2.422795,2.422795 0 1 1 4.84559,0 z"
         transform="matrix(1.866199,0,0,1.866199,-205.89916,-418.75953)"
         id="path3810"
         style="fill:#ff0000;fill-opacity:1;stroke:none" />
      <path
         d="m 348.88224,513.22687 a 2.422795,2.422795 0 1 1 -4.84559,0 2.422795,2.422795 0 1 1 4.84559,0 z"
         transform="matrix(1.866199,0,0,1.866199,-205.89916,-403.79556)"
         id="path3812"
         style="fill:#ff0000;fill-opacity:1;stroke:none" />
      <path
         d="m 348.88224,513.22687 a 2.422795,2.422795 0 1 1 -4.84559,0 2.422795,2.422795 0 1 1 4.84559,0 z"
         transform="matrix(1.866199,0,0,1.866199,-191.19728,-448.68738)"
         id="path3814"
         style="fill:#ff0000;fill-opacity:1;stroke:none" />
      <path
         d="m 348.88224,513.22687 a 2.422795,2.422795 0 1 1 -4.84559,0 2.422795,2.422795 0 1 1 4.84559,0 z"
         transform="matrix(1.866199,0,0,1.866199,-191.19728,-433.72342)"
         id="path3816"
         style="fill:#ff0000;fill-opacity:1;stroke:none" />
      <path
         d="m 348.88224,513.22687 a 2.422795,2.422795 0 1 1 -4.84559,0 2.422795,2.422795 0 1 1 4.84559,0 z"
         transform="matrix(1.866199,0,0,1.866199,-191.19728,-418.75953)"
         id="path3818"
         style="fill:#ff0000;fill-opacity:1;stroke:none" />
      <path
         d="m 348.88224,513.22687 a 2.422795,2.422795 0 1 1 -4.84559,0 2.422795,2.422795 0 1 1 4.84559,0 z"
         transform="matrix(1.866199,0,0,1.866199,-191.19728,-403.79556)"
         id="path3820"
         style="fill:#ff0000;fill-opacity:1;stroke:none" />
      <path
         d="m 348.88224,513.22687 a 2.422795,2.422795 0 1 1 -4.84559,0 2.422795,2.422795 0 1 1 4.84559,0 z"
         transform="matrix(1.866199,0,0,1.866199,-176.49538,-448.68738)"
         id="path3822"
         style="fill:#ff0000;fill-opacity:1;stroke:none" />
      <path
         d="m 348.88224,513.22687 a 2.422795,2.422795 0 1 1 -4.84559,0 2.422795,2.422795 0 1 1 4.84559,0 z"
         transform="matrix(1.866199,0,0,1.866199,-176.49538,-433.72342)"
         id="path3824"
         style="fill:#ebed02;fill-opacity:1;stroke:none" />
      <path
         d="m 348.88224,513.22687 a 2.422795,2.422795 0 1 1 -4.84559,0 2.422795,2.422795 0 1 1 4.84559,0 z"
         transform="matrix(1.866199,0,0,1.866199,-176.49538,-418.75953)"
         id="path3826"
         style="fill:#ebed02;fill-opacity:1;stroke:none" />
      <path
         d="m 348.88224,513.22687 a 2.422795,2.422795 0 1 1 -4.84559,0 2.422795,2.422795 0 1 1 4.84559,0 z"
         transform="matrix(1.866199,0,0,1.866199,-176.49538,-403.79556)"
         id="path3828"
         style="fill:#ff0000;fill-opacity:1;stroke:none" />
      <path
         d="m 348.88224,513.22687 a 2.422795,2.422795 0 1 1 -4.84559,0 2.422795,2.422795 0 1 1 4.84559,0 z"
         transform="matrix(1.866199,0,0,1.866199,-161.79346,-448.68738)"
         id="path3865"
         style="fill:#ebed02;fill-opacity:1;stroke:none" />
      <path
         d="m 348.88224,513.22687 a 2.422795,2.422795 0 1 1 -4.84559,0 2.422795,2.422795 0 1 1 4.84559,0 z"
         transform="matrix(1.866199,0,0,1.866199,-161.79346,-433.72342)"
         id="path3867"
         style="fill:#ff0000;fill-opacity:1;stroke:none" />
      <path
         d="m 348.88224,513.22687 a 2.422795,2.422795 0 1 1 -4.84559,0 2.422795,2.422795 0 1 1 4.84559,0 z"
         transform="matrix(1.866199,0,0,1.866199,-161.79346,-418.75953)"
         id="path3869"
         style="fill:#ebed02;fill-opacity:1;stroke:none" />
      <path
         d="m 348.88224,513.22687 a 2.422795,2.422795 0 1 1 -4.84559,0 2.422795,2.422795 0 1 1 4.84559,0 z"
         transform="matrix(1.866199,0,0,1.866199,-161.79346,-403.79556)"
         id="path3871"
         style="fill:#ff0000;fill-opacity:1;stroke:none" />
      <path
         d="m 348.88224,513.22687 a 2.422795,2.422795 0 1 1 -4.84559,0 2.422795,2.422795 0 1 1 4.84559,0 z"
         transform="matrix(1.866199,0,0,1.866199,-147.09155,-448.68738)"
         id="path3873"
         style="fill:#ebed02;fill-opacity:1;stroke:none" />
      <path
         d="m 348.88224,513.22687 a 2.422795,2.422795 0 1 1 -4.84559,0 2.422795,2.422795 0 1 1 4.84559,0 z"
         transform="matrix(1.866199,0,0,1.866199,-147.09155,-433.72342)"
         id="path3875"
         style="fill:#ff0000;fill-opacity:1;stroke:none" />
      <path
         d="m 348.88224,513.22687 a 2.422795,2.422795 0 1 1 -4.84559,0 2.422795,2.422795 0 1 1 4.84559,0 z"
         transform="matrix(1.866199,0,0,1.866199,-147.09155,-418.75953)"
         id="path3877"
         style="fill:#ebed02;fill-opacity:1;stroke:none" />
      <path
         d="m 348.88224,513.22687 a 2.422795,2.422795 0 1 1 -4.84559,0 2.422795,2.422795 0 1 1 4.84559,0 z"
         transform="matrix(1.866199,0,0,1.866199,-147.09155,-403.79556)"
         id="path3879"
         style="fill:#ff0000;fill-opacity:1;stroke:none" />
      <path
         d="m 348.88224,513.22687 a 2.422795,2.422795 0 1 1 -4.84559,0 2.422795,2.422795 0 1 1 4.84559,0 z"
         transform="matrix(1.866199,0,0,1.866199,-132.38967,-448.68738)"
         id="path3881"
         style="fill:#ebed02;fill-opacity:1;stroke:none" />
      <path
         d="m 348.88224,513.22687 a 2.422795,2.422795 0 1 1 -4.84559,0 2.422795,2.422795 0 1 1 4.84559,0 z"
         transform="matrix(1.866199,0,0,1.866199,-132.38967,-433.72342)"
         id="path3883"
         style="fill:#ebed02;fill-opacity:1;stroke:none" />
      <path
         d="m 348.88224,513.22687 a 2.422795,2.422795 0 1 1 -4.84559,0 2.422795,2.422795 0 1 1 4.84559,0 z"
         transform="matrix(1.866199,0,0,1.866199,-132.38967,-418.75953)"
         id="path3885"
         style="fill:#ebed02;fill-opacity:1;stroke:none" />
      <path
         d="m 348.88224,513.22687 a 2.422795,2.422795 0 1 1 -4.84559,0 2.422795,2.422795 0 1 1 4.84559,0 z"
         transform="matrix(1.866199,0,0,1.866199,-132.38967,-403.79556)"
         id="path3887"
         style="fill:#ebed02;fill-opacity:1;stroke:none" />
      <path
         d="m 348.88224,513.22687 a 2.422795,2.422795 0 1 1 -4.84559,0 2.422795,2.422795 0 1 1 4.84559,0 z"
         transform="matrix(1.866199,0,0,1.866199,-117.68777,-448.68738)"
         id="path3889"
         style="fill:#ebed02;fill-opacity:1;stroke:none" />
      <path
         d="m 348.88224,513.22687 a 2.422795,2.422795 0 1 1 -4.84559,0 2.422795,2.422795 0 1 1 4.84559,0 z"
         transform="matrix(1.866199,0,0,1.866199,-117.68777,-433.72342)"
         id="path3891"
         style="fill:#ebed02;fill-opacity:1;stroke:none" />
      <path
         d="m 348.88224,513.22687 a 2.422795,2.422795 0 1 1 -4.84559,0 2.422795,2.422795 0 1 1 4.84559,0 z"
         transform="matrix(1.866199,0,0,1.866199,-117.68777,-418.75953)"
         id="path3893"
         style="fill:#ebed02;fill-opacity:1;stroke:none" />
      <path
         d="m 348.88224,513.22687 a 2.422795,2.422795 0 1 1 -4.84559,0 2.422795,2.422795 0 1 1 4.84559,0 z"
         transform="matrix(1.866199,0,0,1.866199,-117.68777,-403.79556)"
         id="path3895"
         style="fill:#ebed02;fill-opacity:1;stroke:none" />
      <path
         d="m 348.88224,513.22687 a 2.422795,2.422795 0 1 1 -4.84559,0 2.422795,2.422795 0 1 1 4.84559,0 z"
         transform="matrix(1.866199,0,0,1.866199,-102.98586,-448.68738)"
         id="path3897"
         style="fill:#16ff0e;fill-opacity:0.858824;stroke:none" />
      <path
         d="m 348.88224,513.22687 a 2.422795,2.422795 0 1 1 -4.84559,0 2.422795,2.422795 0 1 1 4.84559,0 z"
         transform="matrix(1.866199,0,0,1.866199,-102.98586,-433.72342)"
         id="path3899"
         style="fill:#16ff0e;fill-opacity:0.858824;stroke:none" />
      <path
         d="m 348.88224,513.22687 a 2.422795,2.422795 0 1 1 -4.84559,0 2.422795,2.422795 0 1 1 4.84559,0 z"
         transform="matrix(1.866199,0,0,1.866199,-102.98586,-418.75953)"
         id="path3901"
         style="fill:#ebed02;fill-opacity:1;stroke:none" />
      <path
         d="m 348.88224,513.22687 a 2.422795,2.422795 0 1 1 -4.84559,0 2.422795,2.422795 0 1 1 4.84559,0 z"
         transform="matrix(1.866199,0,0,1.866199,-102.98586,-403.79556)"
         id="path3903"
         style="fill:#ebed02;fill-opacity:1;stroke:none" />
      <path
         d="m 348.88224,513.22687 a 2.422795,2.422795 0 1 1 -4.84559,0 2.422795,2.422795 0 1 1 4.84559,0 z"
         transform="matrix(1.866199,0,0,1.866199,-88.283964,-448.68738)"
         id="path3905"
         style="fill:#ebed02;fill-opacity:1;stroke:none" />
      <path
         d="m 348.88224,513.22687 a 2.422795,2.422795 0 1 1 -4.84559,0 2.422795,2.422795 0 1 1 4.84559,0 z"
         transform="matrix(1.866199,0,0,1.866199,-88.283964,-433.72342)"
         id="path3907"
         style="fill:#ebed02;fill-opacity:1;stroke:none" />
      <path
         d="m 348.88224,513.22687 a 2.422795,2.422795 0 1 1 -4.84559,0 2.422795,2.422795 0 1 1 4.84559,0 z"
         transform="matrix(1.866199,0,0,1.866199,-88.283964,-418.75953)"
         id="path3909"
         style="fill:#16ff0e;fill-opacity:0.855005;stroke:none" />
      <path
         d="m 348.88224,513.22687 a 2.422795,2.422795 0 1 1 -4.84559,0 2.422795,2.422795 0 1 1 4.84559,0 z"
         transform="matrix(1.866199,0,0,1.866199,-88.283964,-403.79556)"
         id="path3911"
         style="fill:#ebed02;fill-opacity:1;stroke:none" />
      <path
         d="m 348.88224,513.22687 a 2.422795,2.422795 0 1 1 -4.84559,0 2.422795,2.422795 0 1 1 4.84559,0 z"
         transform="matrix(1.866199,0,0,1.866199,-73.582074,-448.68738)"
         id="path3913"
         style="fill:#16ff0e;fill-opacity:0.858824;stroke:none" />
      <path
         d="m 348.88224,513.22687 a 2.422795,2.422795 0 1 1 -4.84559,0 2.422795,2.422795 0 1 1 4.84559,0 z"
         transform="matrix(1.866199,0,0,1.866199,-73.582074,-433.72342)"
         id="path3915"
         style="fill:#16ff0e;fill-opacity:1;stroke:none" />
      <path
         d="m 348.88224,513.22687 a 2.422795,2.422795 0 1 1 -4.84559,0 2.422795,2.422795 0 1 1 4.84559,0 z"
         transform="matrix(1.866199,0,0,1.866199,-73.582074,-418.75953)"
         id="path3917"
         style="fill:#ebed02;fill-opacity:1;stroke:none" />
      <path
         d="m 348.88224,513.22687 a 2.422795,2.422795 0 1 1 -4.84559,0 2.422795,2.422795 0 1 1 4.84559,0 z"
         transform="matrix(1.866199,0,0,1.866199,-73.582074,-403.79556)"
         id="path3919"
         style="fill:#16ff0e;fill-opacity:0.858826;stroke:none" />
      <path
         d="m 348.88224,513.22687 a 2.422795,2.422795 0 1 1 -4.84559,0 2.422795,2.422795 0 1 1 4.84559,0 z"
         transform="matrix(1.866199,0,0,1.866199,-58.880174,-448.68738)"
         id="path3921"
         style="fill:#16ff0e;fill-opacity:0.858824;stroke:none" />
      <path
         d="m 348.88224,513.22687 a 2.422795,2.422795 0 1 1 -4.84559,0 2.422795,2.422795 0 1 1 4.84559,0 z"
         transform="matrix(1.866199,0,0,1.866199,-58.880174,-433.72342)"
         id="path3923"
         style="fill:#ebed02;fill-opacity:1;stroke:none" />
      <path
         d="m 348.88224,513.22687 a 2.422795,2.422795 0 1 1 -4.84559,0 2.422795,2.422795 0 1 1 4.84559,0 z"
         transform="matrix(1.866199,0,0,1.866199,-58.880174,-418.75953)"
         id="path3925"
         style="fill:#16ff0e;fill-opacity:1;stroke:none" />
      <path
         d="m 348.88224,513.22687 a 2.422795,2.422795 0 1 1 -4.84559,0 2.422795,2.422795 0 1 1 4.84559,0 z"
         transform="matrix(1.866199,0,0,1.866199,-58.880174,-403.79556)"
         id="path3927"
         style="fill:#ebed02;fill-opacity:1;stroke:none" />
      <path
         d="m 348.88224,513.22687 a 2.422795,2.422795 0 1 1 -4.84559,0 2.422795,2.422795 0 1 1 4.84559,0 z"
         transform="matrix(1.866199,0,0,1.866199,-44.178254,-448.68738)"
         id="path3929"
         style="fill:#16ff0e;fill-opacity:0.858826;stroke:none" />
      <path
         d="m 348.88224,513.22687 a 2.422795,2.422795 0 1 1 -4.84559,0 2.422795,2.422795 0 1 1 4.84559,0 z"
         transform="matrix(1.866199,0,0,1.866199,-44.178254,-433.72342)"
         id="path3931"
         style="fill:#ebed02;fill-opacity:1;stroke:none" />
      <path
         d="m 348.88224,513.22687 a 2.422795,2.422795 0 1 1 -4.84559,0 2.422795,2.422795 0 1 1 4.84559,0 z"
         transform="matrix(1.866199,0,0,1.866199,-44.178254,-418.75953)"
         id="path3933"
         style="fill:#16ff0e;fill-opacity:1;stroke:none" />
      <path
         d="m 348.88224,513.22687 a 2.422795,2.422795 0 1 1 -4.84559,0 2.422795,2.422795 0 1 1 4.84559,0 z"
         transform="matrix(1.866199,0,0,1.866199,-44.178254,-403.79556)"
         id="path3935"
         style="fill:#16ff0e;fill-opacity:1;stroke:none" />
      <path
         d="m 348.88224,513.22687 a 2.422795,2.422795 0 1 1 -4.84559,0 2.422795,2.422795 0 1 1 4.84559,0 z"
         transform="matrix(1.866199,0,0,1.866199,-29.476354,-448.68738)"
         id="path3937"
         style="fill:#ebed02;fill-opacity:1;stroke:none" />
      <path
         d="m 348.88224,513.22687 a 2.422795,2.422795 0 1 1 -4.84559,0 2.422795,2.422795 0 1 1 4.84559,0 z"
         transform="matrix(1.866199,0,0,1.866199,-29.476354,-433.72342)"
         id="path3939"
         style="fill:#16ff0e;fill-opacity:1;stroke:none" />
      <path
         d="m 348.88224,513.22687 a 2.422795,2.422795 0 1 1 -4.84559,0 2.422795,2.422795 0 1 1 4.84559,0 z"
         transform="matrix(1.866199,0,0,1.866199,-29.476354,-418.75953)"
         id="path3941"
         style="fill:#16ff0e;fill-opacity:1;stroke:none" />
      <path
         d="m 348.88224,513.22687 a 2.422795,2.422795 0 1 1 -4.84559,0 2.422795,2.422795 0 1 1 4.84559,0 z"
         transform="matrix(1.866199,0,0,1.866199,-29.476354,-403.79556)"
         id="path3943"
         style="fill:#16ff0e;fill-opacity:1;stroke:none" />
      <path
         d="m 348.88224,513.22687 a 2.422795,2.422795 0 1 1 -4.84559,0 2.422795,2.422795 0 1 1 4.84559,0 z"
         transform="matrix(1.866199,0,0,1.866199,-14.774464,-448.68738)"
         id="path3945"
         style="fill:#16ff0e;fill-opacity:0.858824;stroke:none" />
      <path
         d="m 348.88224,513.22687 a 2.422795,2.422795 0 1 1 -4.84559,0 2.422795,2.422795 0 1 1 4.84559,0 z"
         transform="matrix(1.866199,0,0,1.866199,-14.774464,-433.72342)"
         id="path3947"
         style="fill:#16ff0e;fill-opacity:1;stroke:none" />
      <path
         d="m 348.88224,513.22687 a 2.422795,2.422795 0 1 1 -4.84559,0 2.422795,2.422795 0 1 1 4.84559,0 z"
         transform="matrix(1.866199,0,0,1.866199,-14.774464,-418.75953)"
         id="path3949"
         style="fill:#16ff0e;fill-opacity:1;stroke:none" />
      <path
         d="m 348.88224,513.22687 a 2.422795,2.422795 0 1 1 -4.84559,0 2.422795,2.422795 0 1 1 4.84559,0 z"
         transform="matrix(1.866199,0,0,1.866199,-14.774464,-403.79556)"
         id="path3951"
         style="fill:#16ff0e;fill-opacity:1;stroke:none" />
      <path
         d="m 348.88224,513.22687 a 2.422795,2.422795 0 1 1 -4.84559,0 2.422795,2.422795 0 1 1 4.84559,0 z"
         transform="matrix(1.866199,0,0,1.866199,-0.07256439,-448.68738)"
         id="path3953"
         style="fill:#16ff0e;fill-opacity:1;stroke:none" />
      <path
         d="m 348.88224,513.22687 a 2.422795,2.422795 0 1 1 -4.84559,0 2.422795,2.422795 0 1 1 4.84559,0 z"
         transform="matrix(1.866199,0,0,1.866199,-0.07256439,-433.72342)"
         id="path3955"
         style="fill:#16ff0e;fill-opacity:1;stroke:none" />
      <path
         d="m 348.88224,513.22687 a 2.422795,2.422795 0 1 1 -4.84559,0 2.422795,2.422795 0 1 1 4.84559,0 z"
         transform="matrix(1.866199,0,0,1.866199,-0.07256439,-418.75953)"
         id="path3957"
         style="fill:#16ff0e;fill-opacity:1;stroke:none" />
      <path
         d="m 348.88224,513.22687 a 2.422795,2.422795 0 1 1 -4.84559,0 2.422795,2.422795 0 1 1 4.84559,0 z"
         transform="matrix(1.866199,0,0,1.866199,-0.07256439,-403.79556)"
         id="path3959"
         style="fill:#16ff0e;fill-opacity:1;stroke:none" />
    </g>
  </g>
</svg>
